<svg xmlns="http://www.w3.org/2000/svg" viewBox="0 0 67 30" class="svg_PLo68">
    <g fill="#db2128" fill-rule="nonzero" class="svg__g_3i8nw">
        <path d="M66.715 25.912a.51.51 0 0 0 .142-.186.83.83 0 0 0 .045-.31V15.263a.866.866 0 0 0-.045-.316.44.44 0 0 0-.142-.175c-.151-.117-.5-.176-1.048-.176s-.903.059-1.065.176a.438.438 0 0 0-.143.175.86.86 0 0 0-.036.316v10.158a.616.616 0 0 0 .172.491c.151.117.506.176 1.065.176.559 0 .91-.059 1.055-.176zm-7.42.058c.52-.17.999-.453 1.402-.83a3.21 3.21 0 0 0 .804-1.258 4.722 4.722 0 0 0 .256-1.578v-7.04a.602.602 0 0 0-.172-.5c-.163-.116-.512-.175-1.048-.175-.558 0-.913.059-1.065.176a.39.39 0 0 0-.146.175.938.938 0 0 0-.057.323v7.018c-.002.29-.05.577-.142.85-.112.312-.334.57-.622.723-.39.208-.828.307-1.268.286a2.876 2.876 0 0 1-.931-.133 1.611 1.611 0 0 1-.63-.377 1.479 1.479 0 0 1-.358-.59 2.407 2.407 0 0 1-.113-.76v-7.017a.602.602 0 0 0-.172-.498c-.163-.117-.512-.176-1.048-.176-.558 0-.913.059-1.065.176a.39.39 0 0 0-.146.175.94.94 0 0 0-.033.323v7.046a4.726 4.726 0 0 0 .256 1.579c.167.478.442.91.804 1.258.403.372.879.651 1.397.819a7.17 7.17 0 0 0 4.095 0l.002.005zm-12.156-.058a.47.47 0 0 0 .137-.186.895.895 0 0 0 .041-.31V16.75h2.48c.15.004.3-.014.446-.055a.458.458 0 0 0 .265-.236c.088-.198.146-.408.171-.623.036-.211.056-.425.06-.639a1.074 1.074 0 0 0-.032-.303.319.319 0 0 0-.13-.176.508.508 0 0 0-.172-.061 1.935 1.935 0 0 0-.325-.021h-7.722a1.516 1.516 0 0 0-.447.054.46.46 0 0 0-.268.237 1.818 1.818 0 0 0-.172.547c-.04.232-.06.467-.06.702-.004.105.007.21.033.31a.308.308 0 0 0 .137.176c.157.07.327.097.497.083h2.76v8.665c-.02.187.05.373.188.498.15.117.506.175 1.065.175.54.007.888-.05 1.046-.172h.002zM1.89 8.421h8.69c.86 0 1.494.275 1.746 1.51.282 1.374.172 2.33-1.348 2.44l-2.732.2c2.012 12.948 13.744 17.171 20.136 3.218 1.058-2.308 1.404-2.728 2.562-2.435 1.57.399 1.785 1.228 1.03 3.55-5.518 17.198-24.083 18.922-27.726-4.04l-2.214.162C.23 13.158.158 11.606.158 10.742c0-1.709.622-2.32 1.732-2.32z"></path> 
        <ellipse cx="33.474" cy="3.398" rx="3.223" ry="3.291"></ellipse>
    </g>
</svg>